<?xml version="1.0" encoding="UTF-8"?>
<svg width="39px" height="39px" viewBox="0 0 39 39" version="1.1" xmlns="http://www.w3.org/2000/svg" xmlns:xlink="http://www.w3.org/1999/xlink">
    <title>5602F155-A29E-4489-BA7C-BC41196B55CC</title>
    <g id="Page-1" stroke="none" stroke-width="1" fill="none" fill-rule="evenodd">
        <g id="Visual-design" transform="translate(-1276.000000, -4473.000000)">
            <g id="Group-12" transform="translate(-40.000000, 3864.000000)">
                <g id="Group-8" transform="translate(1196.410526, 609.410526)">
                    <g id="facebook-with-circle" transform="translate(120.000000, 0.000000)">
                        <circle id="Oval-3" fill="#FFFFFF" cx="19.0894737" cy="19.0894737" r="18.5"></circle>
                        <path d="M18.9868421,0 C8.50056743,0 0,8.50056743 0,18.9868421 C0,29.4731168 8.50056743,37.9736842 18.9868421,37.9736842 C29.4731168,37.9736842 37.9736842,29.4731168 37.9736842,18.9868421 C37.9736842,8.50056743 29.4731168,0 18.9868421,0 Z M23.4843503,13.120699 L20.6303906,13.120699 C20.2921875,13.120699 19.9164062,13.5657031 19.9164062,14.1570641 L19.9164062,16.2179276 L23.4863281,16.2179276 L22.9463898,19.1569326 L19.9164062,19.1569326 L19.9164062,27.9798808 L16.5482196,27.9798808 L16.5482196,19.1569326 L13.4925247,19.1569326 L13.4925247,16.2179276 L16.5482196,16.2179276 L16.5482196,14.4893339 C16.5482196,12.0091776 18.2689021,9.99380345 20.6303906,9.99380345 L23.4843503,9.99380345 L23.4843503,13.120699 Z" id="Shape" fill="#3A589C" fill-rule="nonzero"></path>
                    </g>
                </g>
            </g>
        </g>
    </g>
</svg>