<?xml version="1.0" encoding="UTF-8"?>
<svg width="21px" height="21px" viewBox="0 0 21 21" version="1.1" xmlns="http://www.w3.org/2000/svg" xmlns:xlink="http://www.w3.org/1999/xlink">
    <title>2F662EB7-F72B-4F60-B6E5-362E8F910EAB@1.5x</title>
    <g id="Visual-designs" stroke="none" stroke-width="1" fill="none" fill-rule="evenodd">
        <g id="Landing" transform="translate(-997.000000, -7938.000000)">
            <g id="Group-26" transform="translate(0.000000, 7748.000000)">
                <g id="Group-23" transform="translate(996.400593, 62.000000)">
                    <g id="icons8-instagram" transform="translate(1.000000, 128.072362)">
                        <path d="M19.8166667,4.15555556 C19.5944444,4.3 19.2777778,4.43333333 19.1444444,4.58333333 C19.0944444,4.63333333 19.0666667,4.68888889 19.0777778,4.74444444 L19.0777778,5.31666667 L18.9111111,5.87777778 L18.7444444,6.43333333 L18.5611111,7.04444444 L18.1833333,8.29444444 L17.8166667,9.52777778 L17.5388889,10.4555556 C17.5388889,10.6 17.5333333,10.7444444 17.5222222,10.8833333 C17.4833333,11.4166667 17.3722222,11.9277778 17.1944444,12.4055556 C17.0888889,12.7 16.9611111,12.9833333 16.8055556,13.25 C16.75,13.3555556 16.6833333,13.4611111 16.6166667,13.5611111 C16.3944444,13.9111111 16.1277778,14.2333333 15.8333333,14.5166667 C15.6055556,14.7444444 15.3555556,14.9555556 15.0833333,15.1333333 C15.0833333,15.1333333 15.0833333,15.1333333 15.0777778,15.1333333 C15.0333333,15.1722222 14.9833333,15.2055556 14.9277778,15.2333333 C14.7555556,15.35 14.5722222,15.45 14.3833333,15.5388889 C14.2555556,15.6055556 14.1277778,15.6611111 13.9944444,15.7111111 C13.9666667,15.7277778 13.9333333,15.7388889 13.9055556,15.75 C13.5888889,15.9 13.2222222,16 12.8555556,16.05 C12.8333333,16.0555556 12.8166667,16.0555556 12.7944444,16.0611111 C12.5722222,16.1 12.3555556,16.1333333 12.1333333,16.15 C12.0333333,16.1611111 11.9277778,16.1666667 11.8277778,16.1666667 L11.4333333,16.1444444 L9.53333333,16.0444444 C9.53333333,16.0388889 9.52777778,16.0444444 9.52777778,16.0444444 L8.57222222,15.9944444 C8.5,15.9944444 8.42222222,15.9944444 8.35,15.9888889 C8.05,15.9777778 7.76111111,15.9444444 7.47222222,15.8833333 C7.46666667,15.8833333 7.46666667,15.8833333 7.46666667,15.8833333 C6.93888889,15.7833333 6.43333333,15.6055556 5.96111111,15.3666667 C5.7,15.2333333 5.44444444,15.0833333 5.20555556,14.9111111 C5.10555556,14.8388889 5.01111111,14.7611111 4.91666667,14.6777778 C4.65,14.4555556 4.41111111,14.2166667 4.18888889,13.9722222 C4.15555556,13.9388889 4.12777778,13.9055556 4.1,13.8722222 C4.06666667,13.8388889 4.03333333,13.8 4.00555556,13.7666667 C3.79444444,13.5 3.61666667,13.2277778 3.47222222,12.9388889 C3.33888889,12.6833333 3.23333333,12.4111111 3.15,12.1111111 C3.11666667,12.0055556 3.08888889,11.9055556 3.06666667,11.7944444 C3.06111111,11.7888889 3.05555556,11.7777778 3.05555556,11.7666667 C3,11.5388889 2.95,11.3 2.92222222,11.0611111 C2.88888889,10.8777778 2.87222222,10.6944444 2.87222222,10.5055556 C2.86111111,10.4333333 2.86111111,10.3555556 2.86111111,10.2833333 L3.92222222,8.64444444 L4.96111111,7.04444444 L5.43333333,6.31666667 L5.86111111,5.66111111 L6.00555556,5.43333333 L6.00555556,4.86111111 C6.01666667,4.73333333 6.02222222,4.6 6.01666667,4.47777778 C6.01111111,4.08888889 5.93333333,3.71111111 5.80555556,3.35 C5.68333333,2.96666667 5.51111111,2.60555556 5.33333333,2.27222222 C5.12222222,1.88888889 4.9,1.54444444 4.71666667,1.23333333 C4.44444444,0.777777778 4.25555556,0.405555556 4.30555556,0.144444444 C4.70555556,0.05 5.12777778,0 5.55555556,0 L14.4444444,0 C16.7666667,0 18.7666667,1.44444444 19.5944444,3.47777778 C19.6833333,3.69444444 19.7611111,3.92222222 19.8166667,4.15555556 Z" id="Path" fill="#304FFE" fill-rule="nonzero"></path>
                        <path d="M20,5.55555556 L20,5.70555556 L19.2333333,6.15 L18.7444444,6.43333333 L18.2055556,6.74444444 L17.1277778,7.37222222 L16.0722222,7.98333333 L14.9944444,8.60555556 L14.5666667,8.85555556 C14.5666667,9.12222222 14.5,9.36666667 14.3777778,9.58888889 C14.2055556,9.91111111 13.9166667,10.1777778 13.55,10.4055556 C13.1777778,10.6333333 12.7222222,10.8166667 12.2111111,10.95 C12.2111111,10.95 12.2111111,10.9444444 12.2055556,10.95 C10.2277778,11.4611111 7.52777778,11.2277778 6.21666667,10.25 C5.85,9.97777778 5.59444444,9.64444444 5.48333333,9.26111111 C5.45,9.13333333 5.43333333,8.99444444 5.43333333,8.85555556 L5.43333333,4.86111111 C5.43888889,4.77777778 5.38333333,4.69444444 5.28333333,4.61111111 C4.98333333,4.37222222 4.27777778,4.14444444 3.48888889,3.91666667 C2.87222222,3.74444444 2.21111111,3.57222222 1.65555556,3.40555556 C1.21666667,3.27222222 0.844444444,3.13888889 0.622222222,3.01111111 C0.722222222,2.81666667 0.838888889,2.62222222 0.961111111,2.43888889 C1.73888889,1.3 2.92777778,0.461111111 4.30555556,0.144444444 C4.70555556,0.05 5.12777778,0 5.55555556,0 L11.5555556,0 C14.5388889,0.522222222 17.2888889,1.73888889 19.5944444,3.47777778 C19.6833333,3.69444444 19.7611111,3.92222222 19.8166667,4.15555556 C19.9166667,4.52222222 19.9777778,4.9 19.9944444,5.29444444 C20,5.37777778 20,5.46666667 20,5.55555556 Z" id="Path" fill="#4928F4" fill-rule="nonzero"></path>
                        <path d="M20,5.55555556 L20,8.00555556 L19.8777778,8.38333333 L19.4611111,9.67777778 L19.0277778,11.0111111 L18.8,11.7222222 L18.5888889,12.3833333 L18.3833333,13.0111111 L18.1833333,13.6333333 L18.0777778,13.9611111 L17.9388889,14.3944444 C17.9388889,14.8166667 17.9277778,15.1888889 17.9,15.5055556 C17.8944444,15.5388889 17.8888889,15.5722222 17.8888889,15.6055556 C17.8555556,15.9 17.8111111,16.15 17.7388889,16.3611111 C17.7333333,16.3944444 17.7222222,16.4277778 17.7111111,16.4555556 C17.5666667,16.8555556 17.35,17.1111111 17.0277778,17.2777778 C16.95,17.3222222 16.8611111,17.3555556 16.7666667,17.3888889 C16.4722222,17.4888889 16.1,17.5388889 15.6444444,17.5666667 C15.3111111,17.5888889 14.9277778,17.5944444 14.4944444,17.5944444 L14.1111111,17.5944444 L13.45,17.5666667 L13.3333333,17.5611111 L12.1277778,17.5111111 L10.9055556,17.4611111 L6.87777778,17.2944444 L5.83333333,17.25 L5.68888889,17.25 C5.25555556,17.2444444 4.88333333,17.2166667 4.56111111,17.1722222 C4.09444444,17.1 3.73333333,16.9777778 3.46111111,16.7944444 C3.07222222,16.5444444 2.84444444,16.1777778 2.71111111,15.6666667 C2.67777778,15.5444444 2.65,15.4166667 2.63333333,15.2777778 C2.57777778,14.9555556 2.55,14.5833333 2.53333333,14.1666667 C2.53333333,14.0833333 2.53333333,14 2.52777778,13.9111111 C2.52222222,13.9055556 2.52777778,13.9055556 2.52777778,13.9055556 L2.52777778,13.5833333 C2.52222222,13.4222222 2.52222222,13.2555556 2.52222222,13.0833333 L2.55,12.1888889 L2.56666667,11.55 L2.58888889,10.8055556 L2.58888889,10.7 L2.62777778,9.33333333 L2.66666667,7.96666667 L2.70555556,6.68333333 L2.73888889,5.42222222 L2.75,5.08888889 C2.75,4.91666667 2.16666667,4.81666667 1.51666667,4.73333333 C1,4.66666667 0.433333333,4.60555556 0.0944444444,4.52777778 C0.122222222,4.4 0.15,4.27222222 0.183333333,4.15 C0.283333333,3.75 0.433333333,3.37222222 0.622222222,3.01111111 C0.722222222,2.81666667 0.838888889,2.62222222 0.961111111,2.43888889 C2.16111111,1.91111111 3.41111111,1.5 4.71666667,1.23333333 C5.86111111,0.994444444 7.05555556,0.866666667 8.28888889,0.866666667 C12.3777778,0.866666667 16.1555556,2.25 19.1444444,4.58333333 C19.4333333,4.80555556 19.7166667,5.04444444 19.9944444,5.29444444 C20,5.37777778 20,5.46666667 20,5.55555556 Z" id="Path" fill="#6200EA" fill-rule="nonzero"></path>
                        <path d="M20,6.87222222 L20,9.39444444 L19.6944444,9.98333333 L19.1111111,11.1222222 L18.8,11.7222222 L18.5166667,12.2722222 L18.3944444,12.5111111 C18.3944444,12.6833333 18.3944444,12.85 18.3833333,13.0111111 C18.3833333,13.25 18.3722222,13.4777778 18.3555556,13.6888889 C18.3333333,13.9388889 18.3,14.1666667 18.2666667,14.3777778 C18.1833333,14.8166667 18.0666667,15.1944444 17.9,15.5055556 C17.8777778,15.5444444 17.8555556,15.5833333 17.8333333,15.6166667 C17.7722222,15.7166667 17.7,15.8111111 17.6222222,15.9 C17.5222222,16.0222222 17.4111111,16.1277778 17.2833333,16.2166667 C17.0944444,16.3611111 16.8722222,16.4777778 16.6166667,16.5666667 C16.3,16.6833333 15.9333333,16.7611111 15.5,16.8055556 C15.2166667,16.8333333 14.9055556,16.85 14.5666667,16.85 L14.3333333,16.8611111 L13.1777778,16.9277778 L13.1722222,16.9277778 L11.9444444,17 L10.6944444,17.0722222 L8.97222222,17.1722222 L6.87777778,17.2944444 L6.57222222,17.3111111 C6.28888889,17.3111111 6.02222222,17.2944444 5.76666667,17.2611111 C5.73888889,17.2555556 5.71666667,17.25 5.68888889,17.25 C5.31111111,17.1888889 4.96666667,17.0888889 4.65555556,16.95 C4.27777778,16.7833333 3.95,16.5611111 3.67222222,16.2944444 C3.42777778,16.0555556 3.21666667,15.7833333 3.04444444,15.4777778 C3.00555556,15.4055556 2.96666667,15.3388889 2.93333333,15.2611111 C2.76666667,14.9333333 2.63333333,14.5666667 2.53333333,14.1666667 C2.51666667,14.1 2.5,14.0277778 2.48888889,13.9555556 C2.45555556,13.8277778 2.42777778,13.6944444 2.41111111,13.5555556 C2.35,13.2 2.31666667,12.8222222 2.3,12.4277778 L2.3,12.4222222 C2.29444444,12.2611111 2.28888889,12.1055556 2.28888889,11.9388889 L2.01666667,11.2888889 L1.97777778,11.1888889 L1.94444444,11.1055556 L1.52777778,10.1111111 L1.46111111,9.95 L1.06111111,8.98888889 L0.616666667,7.91666667 C0.616666667,7.91666667 0.616666667,7.91666667 0.611111111,7.91666667 L0.161111111,6.83333333 L0,6.43888889 L0,5.55555556 C0,5.20555556 0.0333333333,4.86111111 0.0944444444,4.52777778 C0.122222222,4.4 0.15,4.27222222 0.183333333,4.15 C0.655555556,3.87777778 1.15,3.62777778 1.65555556,3.40555556 C2.81111111,2.88888889 4.05,2.50555556 5.33333333,2.27222222 C6.28888889,2.1 7.28333333,2.00555556 8.28888889,2.00555556 C12.35,2.00555556 16.0333333,3.47777778 18.9111111,5.87777778 C19.0222222,5.96666667 19.1277778,6.05555556 19.2333333,6.15 C19.4944444,6.37777778 19.75,6.61666667 20,6.87222222 Z" id="Path" fill="#673AB7" fill-rule="nonzero"></path>
                        <path d="M20,8.52777778 L20,11.3833333 L19.6833333,12.0444444 L19.0833333,13.2944444 L19.0777778,13.3111111 C19.0777778,13.55 19.0666667,13.7666667 19.05,13.9611111 C18.9944444,14.6 18.8388889,15.0055556 18.5833333,15.2555556 C18.4,15.4444444 18.1722222,15.55 17.8888889,15.6055556 C17.8722222,15.6111111 17.85,15.6111111 17.8333333,15.6166667 C17.7444444,15.6333333 17.65,15.6444444 17.55,15.6444444 C17.2055556,15.6777778 16.8,15.6555556 16.3333333,15.6222222 C16.2833333,15.6222222 16.2277778,15.6166667 16.1722222,15.6111111 C15.8333333,15.5888889 15.4722222,15.5666667 15.0722222,15.55 C14.8555556,15.5444444 14.6277778,15.5388889 14.3944444,15.5388889 L14.3833333,15.5388889 L13.8222222,15.5833333 L13.8166667,15.5833333 L12.5555556,15.6722222 L11.1166667,15.7833333 L10.9055556,15.8 L9.22222222,15.9222222 L8.35,15.9888889 L7.48888889,16.05 C7.33888889,16.05 7.19444444,16.05 7.05,16.0444444 C7.05,16.0444444 7.04444444,16.0388889 7.04444444,16.0444444 C6.41666667,16.0333333 5.85555556,15.9944444 5.35555556,15.9 C4.89444444,15.8222222 4.48888889,15.7 4.14444444,15.5166667 C3.78888889,15.3444444 3.49444444,15.1 3.25555556,14.7888889 C3.02777778,14.4833333 2.86111111,14.1 2.75555556,13.6388889 C2.75555556,13.6333333 2.75555556,13.6333333 2.75555556,13.6333333 C2.67777778,13.2611111 2.63333333,12.8277778 2.63333333,12.3388889 L2.55,12.1888889 L2.05555556,11.3055556 L1.98333333,11.1833333 L1.94444444,11.1055556 L1.42777778,10.1888889 L1.17222222,9.72777778 L0.85,9.15555556 L0.294444444,8.16111111 L0,7.63888889 L0,5.59444444 C0.488888889,5.27222222 0.994444444,4.98888889 1.51666667,4.73333333 C2.15,4.41111111 2.80555556,4.13888889 3.48888889,3.91666667 C4.23333333,3.67222222 5.01111111,3.47777778 5.80555556,3.35 C6.61111111,3.21666667 7.43888889,3.15 8.28888889,3.15 C12.0666667,3.15 15.5333333,4.5 18.2055556,6.74444444 C18.3277778,6.83888889 18.4444444,6.94444444 18.5611111,7.04444444 C19.0277778,7.46111111 19.4722222,7.91111111 19.8777778,8.38333333 C19.9222222,8.43333333 19.9666667,8.47777778 20,8.52777778 Z" id="Path" fill="#8E24AA" fill-rule="nonzero"></path>
                        <path d="M20,10.3944444 L20,14.4111111 C19.8666667,14.3333333 19.6833333,14.2388889 19.4555556,14.1388889 C19.3333333,14.0777778 19.1944444,14.0166667 19.05,13.9611111 C18.8388889,13.8666667 18.6111111,13.7777778 18.3555556,13.6888889 C18.3,13.6666667 18.2444444,13.65 18.1833333,13.6333333 C18.0833333,13.5944444 17.9777778,13.5611111 17.8722222,13.5277778 C17.5444444,13.4277778 17.1833333,13.3333333 16.8055556,13.25 C16.6611111,13.2222222 16.5111111,13.1944444 16.3611111,13.1722222 C15.8777778,13.0888889 15.3611111,13.0388889 14.8222222,13.0333333 C14.7777778,13.0277778 14.7277778,13.0277778 14.6833333,13.0277778 L13.2555556,13.0388889 L11.3111111,13.05 L11.3055556,13.05 L7.14444444,13.0833333 C5.82222222,13.0833333 5.01111111,13.4 4.52222222,13.5277778 C4.52222222,13.5277778 4.51666667,13.5277778 4.51666667,13.5333333 C4,13.6666667 3.83888889,13.5833333 3.79444444,12.6777778 C3.78333333,12.4277778 3.77777778,12.1055556 3.77777778,11.7111111 L3.46666667,11.4722222 L2.92222222,11.0611111 L2.58888889,10.8055556 L2.52222222,10.7555556 L1.6,10.0555556 L1.46111111,9.95 L1.17222222,9.72777778 L0.638888889,9.32777778 L0,8.83888889 L0,6.95 C0.0555555556,6.90555556 0.105555556,6.86666667 0.161111111,6.83333333 C0.966666667,6.27777778 1.82777778,5.80555556 2.73888889,5.42222222 C3.55,5.07777778 4.40555556,4.80555556 5.28333333,4.61111111 C5.52222222,4.56111111 5.76666667,4.51111111 6.01666667,4.47777778 C6.75555556,4.35 7.51666667,4.28888889 8.28888889,4.28888889 C11.6277778,4.28888889 14.6944444,5.45 17.1277778,7.37222222 C17.4944444,7.66111111 17.85,7.96666667 18.1833333,8.29444444 C18.6388889,8.72777778 19.0666667,9.18888889 19.4611111,9.67777778 C19.5388889,9.77777778 19.6166667,9.87777778 19.6944444,9.98333333 C19.8,10.1166667 19.9,10.2555556 20,10.3944444 Z" id="Path" fill="#C2185B" fill-rule="nonzero"></path>
                        <path d="M20,12.6222222 L20,14.4444444 C20,14.8055556 19.9666667,15.1611111 19.9,15.5055556 C19.8,16.0166667 19.6277778,16.5055556 19.3944444,16.9611111 C19.2722222,16.9888889 19.1333333,16.9888889 18.9777778,16.9666667 C18.6277778,16.9055556 18.2166667,16.7222222 17.7722222,16.4833333 C17.75,16.4777778 17.7277778,16.4666667 17.7111111,16.4555556 C17.5722222,16.3833333 17.4277778,16.3055556 17.2833333,16.2166667 C16.9888889,16.0555556 16.6777778,15.8777778 16.3666667,15.7111111 C16.3,15.6777778 16.2333333,15.6444444 16.1722222,15.6111111 C15.8166667,15.4277778 15.45,15.2611111 15.0833333,15.1333333 C15.0833333,15.1333333 15.0833333,15.1333333 15.0777778,15.1333333 C15,15.1055556 14.9166667,15.0777778 14.8333333,15.0555556 C14.5166667,14.9666667 14.1944444,14.9111111 13.8833333,14.9111111 L13.2722222,14.7333333 L10.5666667,13.95 C10.5666667,13.95 10.5666667,13.95 10.5611111,13.95 L8.9,13.4666667 L8.89444444,13.4666667 L8.17222222,13.2555556 C6.08333333,13.2555556 4.8,14.1444444 4.17777778,13.8055556 C3.93333333,13.6777778 3.78888889,13.3555556 3.73888889,12.7222222 C3.72222222,12.5444444 3.71666667,12.3444444 3.71666667,12.1111111 L3.06666667,11.7944444 L3.03888889,11.7833333 L3.03333333,11.7833333 L2.56666667,11.55 L2.05555556,11.3055556 L2.01666667,11.2888889 L1.92222222,11.2388889 L0.833333333,10.7111111 L0,10.3055556 L0,8.4 C0.0944444444,8.31666667 0.194444444,8.23888889 0.294444444,8.16111111 C0.4,8.07777778 0.505555556,8 0.611111111,7.91666667 C0.616666667,7.91666667 0.616666667,7.91666667 0.616666667,7.91666667 C1.27222222,7.44444444 1.96666667,7.02777778 2.70555556,6.68333333 C3.56666667,6.27222222 4.48333333,5.95555556 5.43333333,5.75 C5.57222222,5.71666667 5.71666667,5.68333333 5.86111111,5.66111111 C6.65,5.51111111 7.46111111,5.43333333 8.28888889,5.43333333 C11.2166667,5.43333333 13.9055556,6.38333333 16.0722222,7.98333333 C16.7,8.45 17.2833333,8.96666667 17.8166667,9.52777778 C18.2555556,9.98888889 18.6611111,10.4888889 19.0277778,11.0111111 C19.0555556,11.05 19.0833333,11.0888889 19.1111111,11.1222222 C19.3166667,11.4222222 19.5055556,11.7277778 19.6833333,12.0444444 C19.8,12.2333333 19.9,12.4277778 20,12.6222222 Z" id="Path" fill="#D81B60" fill-rule="nonzero"></path>
                        <path d="M19.9,15.5055556 C19.8,16.0166667 19.6277778,16.5055556 19.3944444,16.9611111 C19.2888889,17.1666667 19.1722222,17.3611111 19.0444444,17.55 C18.9666667,17.6666667 18.8833333,17.7777778 18.8,17.8833333 C18.6,17.8055556 18.3055556,17.6944444 17.9444444,17.5722222 C17.9444444,17.5722222 17.9444444,17.5722222 17.9444444,17.5666667 C17.6722222,17.4722222 17.3611111,17.3722222 17.0277778,17.2777778 C16.9333333,17.25 16.8388889,17.2222222 16.7388889,17.1944444 C16.3444444,17.0888889 15.9333333,16.9944444 15.5333333,16.9388889 C15.2,16.8833333 14.8722222,16.85 14.5666667,16.85 L14.3111111,16.7777778 L14.3055556,16.7777778 L12.9611111,16.3888889 L12.1333333,16.15 L11.2111111,15.8833333 L11.2055556,15.8833333 L10.9055556,15.8 L7.27777778,14.7555556 L6.23333333,14.4555556 L5.45555556,14.2722222 L4.18888889,13.9722222 L4.03333333,13.9333333 C4.03333333,13.9333333 4.03333333,13.9333333 4.02777778,13.9333333 L2.75555556,13.6388889 C2.75555556,13.6333333 2.75555556,13.6333333 2.75555556,13.6333333 L2.52777778,13.5833333 L2.41111111,13.5555556 L1.48333333,13.3388889 L1.37777778,13.3111111 L0.588888889,12.6611111 L0,12.1666667 L0,9.9 C0.205555556,9.7 0.416666667,9.51111111 0.638888889,9.32777778 C0.705555556,9.26666667 0.777777778,9.21111111 0.85,9.15555556 C0.916666667,9.1 0.988888889,9.04444444 1.06111111,8.98888889 C1.56666667,8.60555556 2.1,8.26111111 2.66666667,7.96666667 C3.38888889,7.57777778 4.15555556,7.26666667 4.96111111,7.04444444 C5.11666667,6.99444444 5.27222222,6.95 5.43333333,6.91666667 C6.34444444,6.68888889 7.3,6.57222222 8.28888889,6.57222222 C10.7722222,6.57222222 13.0833333,7.32222222 14.9944444,8.60555556 C15.9444444,9.24444444 16.8,10.0111111 17.5222222,10.8833333 C17.8888889,11.3222222 18.2222222,11.7833333 18.5166667,12.2722222 C18.5444444,12.3111111 18.5666667,12.3444444 18.5888889,12.3833333 C18.7666667,12.6777778 18.9333333,12.9833333 19.0833333,13.2944444 C19.2222222,13.5722222 19.3444444,13.85 19.4555556,14.1388889 C19.6333333,14.5833333 19.7777778,15.0388889 19.9,15.5055556 Z" id="Path" fill="#F50057" fill-rule="nonzero"></path>
                        <path d="M19.0444444,17.55 C18.9666667,17.6666667 18.8833333,17.7777778 18.8,17.8833333 C18.5555556,18.1888889 18.2888889,18.4666667 17.9888889,18.7111111 C17.7277778,18.9277778 17.45,19.1222222 17.1555556,19.2888889 C17.0444444,19.2611111 16.9333333,19.2277778 16.8166667,19.1833333 C16.45,19.0555556 16.0666667,18.8444444 15.7111111,18.6222222 C15.1777778,18.2833333 14.7166667,17.9166667 14.5111111,17.75 C14.4333333,17.6833333 14.3944444,17.65 14.3944444,17.65 L13.45,17.5666667 L13.3333333,17.5555556 L12.1111111,17.45 L10.8444444,17.3388889 L8.97222222,17.1722222 L6.00555556,16.9111111 L5.99444444,16.9055556 L4.95,16.4 L3.89444444,15.8888889 L3.04444444,15.4777778 L2.86111111,15.3888889 L2.63333333,15.2777778 L1.84444444,14.8944444 L0.794444444,14.3888889 L0.466666667,14.2277778 L0,14.0833333 L0,11.6 C0.261111111,11.2888889 0.538888889,10.9944444 0.833333333,10.7111111 C1.02222222,10.5333333 1.22222222,10.3555556 1.42777778,10.1888889 C1.46111111,10.1611111 1.49444444,10.1333333 1.52777778,10.1111111 C1.55,10.0833333 1.57777778,10.0666667 1.6,10.0555556 C1.92777778,9.78888889 2.27222222,9.55 2.62777778,9.33333333 C3.03888889,9.07222222 3.47222222,8.83888889 3.92222222,8.64444444 C4.40555556,8.42777778 4.91111111,8.24444444 5.43333333,8.10555556 C6.33888889,7.85 7.3,7.71666667 8.28888889,7.71666667 C10.5555556,7.71666667 12.65,8.40555556 14.3777778,9.58888889 C15.4833333,10.3444444 16.4388889,11.3 17.1944444,12.4055556 C17.4444444,12.7611111 17.6666667,13.1388889 17.8722222,13.5277778 C17.9444444,13.6722222 18.0166667,13.8166667 18.0777778,13.9611111 C18.1444444,14.1 18.2055556,14.2388889 18.2666667,14.3777778 C18.3833333,14.6666667 18.4888889,14.9555556 18.5833333,15.2555556 C18.7611111,15.8111111 18.8944444,16.3777778 18.9777778,16.9666667 C19.0055556,17.1611111 19.0277778,17.3555556 19.0444444,17.55 Z" id="Path" fill="#FF1744" fill-rule="nonzero"></path>
                        <path d="M17.9944444,18.5666667 C17.9944444,18.6111111 17.9944444,18.6611111 17.9888889,18.7111111 C17.7277778,18.9277778 17.45,19.1222222 17.1555556,19.2888889 C17.0333333,19.3555556 16.9111111,19.4222222 16.7833333,19.4777778 C16.6555556,19.5388889 16.5277778,19.5944444 16.3944444,19.6444444 C16.2055556,19.5444444 15.95,19.4222222 15.6777778,19.3055556 C15.2944444,19.1333333 14.8777778,18.9777778 14.5555556,18.9277778 C14.4777778,18.9111111 14.4055556,18.9055556 14.3388889,18.9055556 L13.4277778,18.7888889 L13.4166667,18.7888889 L12.2833333,18.6388889 L11.1388889,18.4888889 L10.6055556,18.4222222 L6.40555556,17.8777778 C6.13333333,17.8777778 5.84444444,17.8611111 5.54444444,17.8222222 C5.17777778,17.7888889 4.79444444,17.7333333 4.41111111,17.6555556 C4.03333333,17.5888889 3.65,17.5 3.28333333,17.4055556 C2.9,17.3166667 2.52222222,17.2111111 2.17222222,17.1111111 C1.76666667,16.9888889 1.38888889,16.8722222 1.07222222,16.7666667 C0.811111111,16.6833333 0.588888889,16.6055556 0.416666667,16.5444444 C0.316666667,16.3055556 0.233333333,16.0555556 0.172222222,15.8 C0.0555555556,15.3666667 0,14.9111111 0,14.4444444 L0,13.5166667 C0.177777778,13.2222222 0.372222222,12.9333333 0.588888889,12.6611111 C0.983333333,12.1388889 1.43333333,11.6611111 1.92222222,11.2388889 C1.93888889,11.2166667 1.96111111,11.2 1.97777778,11.1888889 L1.98333333,11.1833333 C2.15555556,11.0277778 2.33333333,10.8888889 2.52222222,10.7555556 C2.54444444,10.7333333 2.56666667,10.7166667 2.58888889,10.7 C2.67777778,10.6333333 2.77222222,10.5666667 2.87222222,10.5055556 C3.66666667,9.96666667 4.54444444,9.54444444 5.48333333,9.26111111 C6.37222222,8.99444444 7.31111111,8.85555556 8.28888889,8.85555556 C10.2277778,8.85555556 12.0388889,9.42777778 13.55,10.4055556 C14.6666667,11.1222222 15.6277778,12.0666667 16.3611111,13.1722222 C16.45,13.3 16.5333333,13.4277778 16.6166667,13.5611111 C17,14.2111111 17.3166667,14.9111111 17.55,15.6444444 C17.5777778,15.7277778 17.6,15.8111111 17.6222222,15.9 C17.6666667,16.05 17.7055556,16.2055556 17.7388889,16.3611111 C17.75,16.4 17.7611111,16.4388889 17.7722222,16.4833333 C17.85,16.8333333 17.9055556,17.2 17.9444444,17.5666667 C17.9444444,17.5722222 17.9444444,17.5722222 17.9444444,17.5722222 C17.9777778,17.9 17.9944444,18.2333333 17.9944444,18.5666667 Z" id="Path" fill="#FF5722" fill-rule="nonzero"></path>
                        <path d="M16.85,18.5666667 C16.85,18.7611111 16.8388889,18.9722222 16.8166667,19.1833333 C16.8055556,19.2833333 16.7944444,19.3833333 16.7833333,19.4777778 C16.6555556,19.5388889 16.5277778,19.5944444 16.3944444,19.6444444 C16.1444444,19.7388889 15.8888889,19.8166667 15.6277778,19.8722222 C15.45,19.9111111 15.2666667,19.9444444 15.0833333,19.9611111 L15.0777778,19.9611111 C14.9055556,19.8555556 14.7055556,19.7277778 14.5,19.5833333 C14.1277778,19.3222222 13.7388889,19.0277778 13.4277778,18.7888889 C13.4222222,18.7833333 13.4222222,18.7833333 13.4166667,18.7777778 C13.0888889,18.5277778 12.8555556,18.3388889 12.8555556,18.3388889 L12.2666667,18.3611111 L11.1333333,18.4 L10.6055556,18.4222222 L8.48333333,18.5 L6.68888889,18.5666667 C6.57222222,18.5722222 6.43333333,18.5722222 6.26111111,18.5666667 L6.25555556,18.5666667 C6.02222222,18.5611111 5.74444444,18.5444444 5.43888889,18.5166667 C5.08333333,18.4888889 4.69444444,18.4555556 4.3,18.4166667 C3.91666667,18.3722222 3.52777778,18.3277778 3.15555556,18.2833333 C2.74444444,18.2388889 2.35555556,18.1888889 2.02222222,18.1444444 C1.76111111,18.1111111 1.53333333,18.0833333 1.35,18.0611111 C1.19444444,17.8833333 1.05555556,17.7 0.922222222,17.5 C0.722222222,17.2 0.55,16.8833333 0.416666667,16.5444444 C0.316666667,16.3055556 0.233333333,16.0555556 0.172222222,15.8 C0.333333333,15.3055556 0.544444444,14.8388889 0.794444444,14.3888889 C0.994444444,14.0222222 1.22777778,13.6722222 1.48333333,13.3388889 C1.73333333,13.0111111 2.00555556,12.7055556 2.3,12.4277778 L2.3,12.4222222 C2.38333333,12.3388889 2.46666667,12.2611111 2.55,12.1888889 C2.70555556,12.0444444 2.86666667,11.9111111 3.03333333,11.7833333 L3.03888889,11.7833333 C3.04444444,11.7722222 3.05,11.7722222 3.05555556,11.7666667 C3.18888889,11.6611111 3.32777778,11.5666667 3.46666667,11.4722222 C4.28888889,10.9111111 5.21666667,10.4944444 6.21666667,10.25 C6.87777778,10.0888889 7.57222222,10 8.28888889,10 C9.7,10 11.0333333,10.3388889 12.2055556,10.95 L12.2111111,10.95 C13.2166667,11.4666667 14.1055556,12.1777778 14.8222222,13.0333333 C15.2166667,13.4888889 15.5555556,13.9888889 15.8333333,14.5166667 C16.0277778,14.8722222 16.1944444,15.2444444 16.3333333,15.6222222 C16.3444444,15.6555556 16.3555556,15.6833333 16.3666667,15.7111111 C16.4611111,15.9888889 16.5444444,16.2777778 16.6166667,16.5666667 C16.6666667,16.7722222 16.7055556,16.9833333 16.7388889,17.1944444 C16.75,17.2611111 16.7611111,17.3222222 16.7666667,17.3888889 C16.8222222,17.7722222 16.85,18.1666667 16.85,18.5666667 Z" id="Path" fill="#FF6F00" fill-rule="nonzero"></path>
                        <path d="M15.7111111,18.5666667 L15.7111111,18.6222222 C15.7111111,18.8111111 15.6944444,19.05 15.6777778,19.3055556 C15.6611111,19.4944444 15.6444444,19.6888889 15.6277778,19.8722222 C15.45,19.9111111 15.2666667,19.9444444 15.0833333,19.9611111 L15.0777778,19.9611111 C14.8666667,19.9888889 14.6611111,20 14.4444444,20 L13.4722222,20 L13.2611111,19.9388889 L12.1666667,19.6055556 L11.0555556,19.2722222 L8.48333333,18.5 L7.37222222,18.1666667 C7.37222222,18.1666667 6.91111111,18.35 6.26111111,18.5666667 L6.25555556,18.5666667 C6.00555556,18.65 5.73333333,18.7388889 5.44444444,18.8277778 C5.08333333,18.9333333 4.7,19.0388889 4.32222222,19.1222222 C3.93333333,19.2111111 3.55,19.2777778 3.20555556,19.3055556 C3.1,19.3166667 2.99444444,19.3222222 2.9,19.3222222 C2.58888889,19.15 2.28888889,18.9444444 2.01666667,18.7166667 C1.77777778,18.5166667 1.55555556,18.3 1.35,18.0611111 C1.19444444,17.8833333 1.05555556,17.7 0.922222222,17.5 C0.961111111,17.25 1.00555556,17.0055556 1.07222222,16.7666667 C1.23888889,16.1055556 1.5,15.4722222 1.84444444,14.8944444 C2.03333333,14.5666667 2.24444444,14.25 2.48888889,13.9555556 C2.49444444,13.9388889 2.51111111,13.9222222 2.52777778,13.9111111 C2.52222222,13.9055556 2.52777778,13.9055556 2.52777778,13.9055556 C2.6,13.8111111 2.67777778,13.7222222 2.75555556,13.6388889 C2.75555556,13.6333333 2.75555556,13.6333333 2.75555556,13.6333333 C2.98333333,13.3888889 3.21666667,13.1555556 3.47222222,12.9388889 C3.56111111,12.8666667 3.64444444,12.7944444 3.73888889,12.7222222 C3.75555556,12.7055556 3.77222222,12.6944444 3.79444444,12.6777778 C5.04444444,11.7222222 6.60555556,11.1444444 8.28888889,11.1444444 C10.2,11.1444444 11.9388889,11.8611111 13.2555556,13.0388889 C13.8888889,13.6111111 14.4277778,14.2944444 14.8333333,15.0555556 C14.8666667,15.1111111 14.9,15.1722222 14.9277778,15.2333333 C14.9777778,15.3333333 15.0277778,15.4388889 15.0722222,15.55 C15.2555556,15.95 15.4,16.3722222 15.5,16.8055556 C15.5111111,16.85 15.5222222,16.8944444 15.5333333,16.9388889 C15.5777778,17.1444444 15.6166667,17.3555556 15.6444444,17.5666667 C15.6888889,17.8944444 15.7111111,18.2277778 15.7111111,18.5666667 Z" id="Path" fill="#FF9800" fill-rule="nonzero"></path>
                        <path d="M14.5666667,18.5666667 C14.5666667,18.6777778 14.5611111,18.8 14.5555556,18.9277778 C14.5444444,19.1333333 14.5277778,19.3555556 14.5,19.5833333 C14.4888889,19.7222222 14.4666667,19.8611111 14.4444444,20 L11.4,20 L10.8111111,19.9055556 L8.51111111,19.5388889 L8.18333333,19.4888889 L7.43333333,19.3666667 C7.10555556,19.3666667 6.39444444,19.5111111 5.64444444,19.65 C5.25,19.7222222 4.85,19.8 4.48888889,19.85 C4.44444444,19.8555556 4.4,19.8611111 4.36111111,19.8666667 L4.35555556,19.8666667 C3.96666667,19.7833333 3.58888889,19.6555556 3.23333333,19.4888889 C3.12222222,19.4388889 3.01111111,19.3833333 2.9,19.3222222 C2.58888889,19.15 2.28888889,18.9444444 2.01666667,18.7166667 C2.01111111,18.65 2.00555556,18.5944444 2.00555556,18.5666667 C2.00555556,18.4222222 2.01111111,18.2833333 2.02222222,18.1444444 C2.04444444,17.7888889 2.09444444,17.4444444 2.17222222,17.1111111 C2.29444444,16.6055556 2.47222222,16.1166667 2.71111111,15.6666667 C2.75555556,15.5722222 2.80555556,15.4777778 2.86111111,15.3888889 C2.88333333,15.3444444 2.91111111,15.3055556 2.93333333,15.2611111 C3.03333333,15.1 3.14444444,14.9444444 3.25555556,14.7888889 C3.48888889,14.4833333 3.75,14.1944444 4.02777778,13.9333333 C4.03333333,13.9333333 4.03333333,13.9333333 4.03333333,13.9333333 C4.05555556,13.9111111 4.07777778,13.8888889 4.1,13.8722222 C4.12777778,13.85 4.15,13.8222222 4.17777778,13.8055556 C4.28888889,13.7055556 4.4,13.6166667 4.51666667,13.5333333 C4.51666667,13.5277778 4.52222222,13.5277778 4.52222222,13.5277778 C5.57222222,12.7444444 6.87222222,12.2833333 8.28888889,12.2833333 C9.38888889,12.2833333 10.4111111,12.5611111 11.3055556,13.05 L11.3111111,13.05 C12.0777778,13.4722222 12.7444444,14.0444444 13.2722222,14.7333333 C13.4777778,15 13.6611111,15.2833333 13.8166667,15.5833333 L13.8222222,15.5833333 C13.85,15.6388889 13.8777778,15.6944444 13.9055556,15.75 C14.0722222,16.0777778 14.2055556,16.4222222 14.3055556,16.7777778 L14.3111111,16.7777778 C14.3166667,16.8055556 14.3277778,16.8333333 14.3333333,16.8611111 C14.4,17.1 14.4555556,17.3444444 14.4944444,17.5944444 C14.5,17.6444444 14.5055556,17.7 14.5111111,17.75 C14.55,18.0166667 14.5666667,18.2888889 14.5666667,18.5666667 Z" id="Path" fill="#FFC107" fill-rule="nonzero"></path>
                        <path d="M13.4277778,18.5055556 C13.4277778,18.5944444 13.4277778,18.6888889 13.4166667,18.7777778 L13.4166667,18.7833333 C13.4166667,18.7888889 13.4166667,18.7888889 13.4166667,18.7888889 C13.4055556,19.1888889 13.35,19.5833333 13.2611111,19.9388889 C13.2611111,19.9611111 13.2555556,19.9777778 13.2444444,20 L10.65,20 L8.51111111,19.5388889 L8.22777778,19.4777778 L8.18333333,19.4888889 L5.81111111,19.9777778 L5.70555556,20 L5.55555556,20 C5.2,20 4.85,19.9666667 4.51111111,19.9 C4.46111111,19.8888889 4.41111111,19.8777778 4.36111111,19.8666667 L4.35555556,19.8666667 C3.96666667,19.7833333 3.58888889,19.6555556 3.23333333,19.4888889 C3.22222222,19.4277778 3.21111111,19.3666667 3.20555556,19.3055556 C3.16666667,19.0666667 3.15,18.8166667 3.15,18.5666667 C3.15,18.4722222 3.15,18.3777778 3.15555556,18.2833333 C3.17222222,17.9833333 3.21666667,17.6888889 3.28333333,17.4055556 C3.32777778,17.1944444 3.38888889,16.9888889 3.46111111,16.7944444 C3.52222222,16.6222222 3.59444444,16.4555556 3.67222222,16.2944444 C3.73888889,16.1555556 3.81666667,16.0222222 3.89444444,15.8888889 C3.97222222,15.7611111 4.05555556,15.6388889 4.14444444,15.5166667 C4.36666667,15.2111111 4.62777778,14.9277778 4.91666667,14.6777778 C5.08333333,14.5333333 5.26666667,14.3944444 5.45555556,14.2722222 C6.26666667,13.7388889 7.23888889,13.4277778 8.28888889,13.4277778 C8.49444444,13.4277778 8.69444444,13.4388889 8.88888889,13.4666667 L8.9,13.4666667 C9.49444444,13.5333333 10.05,13.7 10.5611111,13.95 C10.5666667,13.95 10.5666667,13.95 10.5666667,13.95 C11.3722222,14.3444444 12.0555556,14.9388889 12.5555556,15.6722222 C12.6388889,15.7944444 12.7222222,15.9277778 12.7944444,16.0611111 C12.8555556,16.1666667 12.9111111,16.2777778 12.9611111,16.3888889 C13.0388889,16.5611111 13.1111111,16.7444444 13.1722222,16.9277778 L13.1777778,16.9277778 C13.2388889,17.1333333 13.2944444,17.3388889 13.3333333,17.5555556 L13.3333333,17.5611111 C13.3944444,17.8666667 13.4277778,18.1833333 13.4277778,18.5055556 Z" id="Path" fill="#FFD54F" fill-rule="nonzero"></path>
                        <path d="M12.2833333,18.6222222 L12.2833333,18.6388889 C12.2833333,18.9666667 12.2444444,19.2888889 12.1666667,19.6055556 C12.1388889,19.7388889 12.1,19.8722222 12.05,20 L9.56111111,20 L8.28888889,19.65 L7.01666667,20 L5.55555556,20 C5.2,20 4.85,19.9666667 4.51111111,19.9 C4.5,19.8833333 4.49444444,19.8666667 4.48888889,19.85 C4.41111111,19.6111111 4.35,19.3722222 4.32222222,19.1222222 C4.3,18.9611111 4.28888889,18.7944444 4.28888889,18.6222222 C4.28888889,18.5555556 4.28888889,18.4833333 4.3,18.4166667 C4.30555556,18.1555556 4.34444444,17.9 4.41111111,17.6555556 C4.44444444,17.4888889 4.49444444,17.3277778 4.56111111,17.1722222 C4.58333333,17.0944444 4.61666667,17.0222222 4.65555556,16.95 C4.73888889,16.7611111 4.83888889,16.5777778 4.95,16.4 C5.07222222,16.2222222 5.20555556,16.0555556 5.35555556,15.9 C5.53333333,15.7 5.73333333,15.5166667 5.96111111,15.3666667 C6.35,15.0833333 6.79444444,14.8722222 7.27777778,14.7555556 C7.6,14.6666667 7.93888889,14.6222222 8.28888889,14.6222222 C9.4,14.6222222 10.3944444,15.0666667 11.1166667,15.7833333 C11.1444444,15.8111111 11.1777778,15.8444444 11.2055556,15.8833333 L11.2111111,15.8833333 C11.2888889,15.9666667 11.3611111,16.05 11.4333333,16.1444444 C11.6388889,16.4055556 11.8111111,16.6888889 11.9444444,17 C12.0111111,17.1444444 12.0666667,17.2944444 12.1111111,17.45 C12.1166667,17.4722222 12.1222222,17.4888889 12.1277778,17.5111111 C12.2055556,17.7833333 12.2555556,18.0666667 12.2666667,18.3611111 C12.2777778,18.4444444 12.2833333,18.5333333 12.2833333,18.6222222 Z" id="Path" fill="#FFE082" fill-rule="nonzero"></path>
                        <path d="M11.1444444,18.6222222 C11.1444444,18.85 11.1166667,19.0666667 11.0555556,19.2722222 C11,19.4944444 10.9166667,19.7055556 10.8111111,19.9055556 C10.7944444,19.9388889 10.7555556,20 10.7555556,20 L5.82222222,20 C5.81666667,19.9944444 5.81111111,19.9833333 5.81111111,19.9777778 C5.74444444,19.8722222 5.68888889,19.7666667 5.64444444,19.65 C5.53333333,19.3944444 5.46666667,19.1166667 5.44444444,18.8277778 C5.43333333,18.7611111 5.43333333,18.6888889 5.43333333,18.6222222 C5.43333333,18.5888889 5.43333333,18.55 5.43888889,18.5166667 C5.44444444,18.2722222 5.47777778,18.0388889 5.54444444,17.8222222 C5.6,17.6222222 5.67222222,17.4388889 5.76666667,17.2611111 C5.76666667,17.2611111 5.77222222,17.2555556 5.77222222,17.25 C5.83888889,17.1333333 5.91111111,17.0166667 5.99444444,16.9055556 C6.26666667,16.5388889 6.62777778,16.2388889 7.04444444,16.0444444 C7.05,16.0444444 7.05,16.0444444 7.05,16.0444444 C7.18333333,15.9777778 7.32222222,15.9222222 7.46666667,15.8833333 C7.46666667,15.8833333 7.46666667,15.8833333 7.47222222,15.8833333 C7.72777778,15.8055556 8.00555556,15.7666667 8.28888889,15.7666667 C8.61666667,15.7666667 8.93333333,15.8166667 9.22222222,15.9222222 C9.32777778,15.95 9.42777778,15.9944444 9.52777778,16.0444444 C9.52777778,16.0444444 9.52777778,16.0444444 9.53333333,16.0444444 C10.0111111,16.2722222 10.4166667,16.6277778 10.6944444,17.0722222 C10.75,17.1555556 10.8,17.2444444 10.8444444,17.3388889 C10.8666667,17.3777778 10.8888889,17.4222222 10.9055556,17.4611111 C11.0333333,17.75 11.1111111,18.0666667 11.1333333,18.4 C11.1388889,18.4277778 11.1388889,18.4555556 11.1388889,18.4888889 C11.1444444,18.5333333 11.1444444,18.5777778 11.1444444,18.6222222 Z" id="Path" fill="#FFECB3" fill-rule="nonzero"></path>
                        <g id="Group" transform="translate(2.777778, 2.777778)">
                            <path d="M10.5555556,0 L3.88888889,0 C1.72222222,0 0,1.72222222 0,3.88888889 L0,10.5555556 C0,12.7222222 1.72222222,14.4444444 3.88888889,14.4444444 L10.5555556,14.4444444 C12.7222222,14.4444444 14.4444444,12.7222222 14.4444444,10.5555556 L14.4444444,3.88888889 C14.4444444,1.72222222 12.7222222,0 10.5555556,0 Z" id="Path" stroke="#FFFFFF" stroke-width="2" stroke-linecap="round" stroke-linejoin="round"></path>
                            <circle id="Oval" fill="#FFFFFF" fill-rule="nonzero" cx="11.1111111" cy="2.77777778" r="1"></circle>
                        </g>
                        <circle id="Oval" stroke="#FFFFFF" stroke-width="2" stroke-linecap="round" stroke-linejoin="round" cx="10" cy="10" r="3.33333333"></circle>
                    </g>
                </g>
            </g>
        </g>
    </g>
</svg>