<?xml version="1.0" encoding="UTF-8"?>
<svg width="88px" height="69px" viewBox="0 0 88 69" version="1.1" xmlns="http://www.w3.org/2000/svg" xmlns:xlink="http://www.w3.org/1999/xlink">
    <title>5C2589CE-099C-426E-85A8-FC2F2C25E737@1.5x</title>
    <g id="Visual-designs" stroke="none" stroke-width="1" fill="none" fill-rule="evenodd">
        <g id="Landing" transform="translate(-101.000000, -3073.000000)" fill="#58939D" fill-rule="nonzero">
            <g id="Group-11" transform="translate(100.000000, 2833.000000)">
                <path d="M32.4276316,309 L32.4276316,277.110197 L17.2171053,277.110197 C17.3662281,270.830592 18.8015351,265.799342 21.5230263,262.016447 C24.2445175,258.233553 28.7368421,255.282895 35,253.164474 L35,253.164474 L28.8486842,240 C22.1381579,242.421053 16.620614,245.75 12.2960526,249.986842 C7.97149123,254.223684 5.00767544,259.009046 3.40460526,264.342928 C1.80153509,269.676809 1,276.958882 1,286.189145 L1,286.189145 L1,309 L32.4276316,309 Z M86.4276316,309 L86.4276316,277.110197 L71.2171053,277.110197 C71.3662281,270.830592 72.8015351,265.799342 75.5230263,262.016447 C78.2445175,258.233553 82.7368421,255.282895 89,253.164474 L89,253.164474 L82.8486842,240 C76.2127193,242.421053 70.7138158,245.75 66.3519737,249.986842 C61.9901316,254.223684 59.0076754,258.990132 57.4046053,264.286184 C55.8015351,269.582237 55,276.883224 55,286.189145 L55,286.189145 L55,309 L86.4276316,309 Z" id="“"></path>
            </g>
        </g>
    </g>
</svg>
