<?xml version="1.0" encoding="UTF-8"?>
<svg width="39px" height="39px" viewBox="0 0 39 39" version="1.1" xmlns="http://www.w3.org/2000/svg" xmlns:xlink="http://www.w3.org/1999/xlink">
    <title>3A986EE9-2347-4CB3-8A81-36F075E2C5FF</title>
    <g id="Page-1" stroke="none" stroke-width="1" fill="none" fill-rule="evenodd">
        <g id="Visual-design" transform="translate(-1156.000000, -4473.000000)">
            <g id="Group-12" transform="translate(-40.000000, 3864.000000)">
                <g id="linkedin-with-circle" transform="translate(1196.410526, 609.410526)">
                    <circle id="Oval-3-Copy-3" fill="#FFFFFF" cx="19.0894737" cy="19.0894737" r="18.5"></circle>
                    <path d="M18.9868421,0 C8.50056743,0 0,8.50056743 0,18.9868421 C0,29.4731168 8.50056743,37.9736842 18.9868421,37.9736842 C29.4731168,37.9736842 37.9736842,29.4731168 37.9736842,18.9868421 C37.9736842,8.50056743 29.4731168,0 18.9868421,0 Z M14.3390214,26.8564926 L10.4941859,26.8564926 L10.4941859,14.4834005 L14.3390214,14.4834005 L14.3390214,26.8564926 Z M12.3928701,12.9644531 C11.1785033,12.9644531 10.3933183,12.1041118 10.3933183,11.0400576 C10.3933183,9.95424753 11.2022368,9.1196176 12.442315,9.1196176 C13.6823931,9.1196176 14.4418668,9.95424753 14.4656003,11.0400576 C14.4656003,12.1041118 13.6823931,12.9644531 12.3928701,12.9644531 Z M28.3813734,26.8564926 L24.5365378,26.8564926 L24.5365378,19.9994737 C24.5365378,18.4033923 23.9787993,17.31956 22.5884087,17.31956 C21.5263322,17.31956 20.8954153,18.0533224 20.6165461,18.7593956 C20.5137007,19.0105757 20.4879893,19.3665789 20.4879893,19.7206044 L20.4879893,26.8545148 L16.641176,26.8545148 L16.641176,18.4291036 C16.641176,16.8844449 16.5917311,15.5929441 16.5403084,14.4814227 L19.8808059,14.4814227 L20.0568298,16.2001275 L20.1339638,16.2001275 C20.6402796,15.3931867 21.8803577,14.2025535 23.9550658,14.2025535 C26.4846669,14.2025535 28.3813734,15.8975247 28.3813734,19.540625 L28.3813734,26.8564926 Z" id="Shape" fill="#007AB8" fill-rule="nonzero"></path>
                </g>
            </g>
        </g>
    </g>
</svg>