<?xml version="1.0" encoding="UTF-8"?>
<svg width="39px" height="39px" viewBox="0 0 39 39" version="1.1" xmlns="http://www.w3.org/2000/svg" xmlns:xlink="http://www.w3.org/1999/xlink">
    <title>0186B267-1AB0-45F4-8362-CC81A030A88D</title>
    <g id="Page-1" stroke="none" stroke-width="1" fill="none" fill-rule="evenodd">
        <g id="Visual-design" transform="translate(-1196.000000, -4473.000000)">
            <g id="Group-12" transform="translate(-40.000000, 3864.000000)">
                <g id="Group-8" transform="translate(1196.410526, 609.410526)">
                    <g id="pinterest-with-circle" transform="translate(40.000000, 0.000000)">
                        <circle id="Oval-3-Copy-2" fill="#FFFFFF" cx="19.0894737" cy="19.0894737" r="18.5"></circle>
                        <path d="M18.9868421,0 C8.50056743,0 0,8.50056743 0,18.9868421 C0,29.4731168 8.50056743,37.9736842 18.9868421,37.9736842 C29.4731168,37.9736842 37.9736842,29.4731168 37.9736842,18.9868421 C37.9736842,8.50056743 29.4731168,0 18.9868421,0 Z M20.2862541,23.4863281 C19.0679317,23.3933717 18.5576604,22.7901439 17.6043627,22.2126275 C17.0802467,24.9637418 16.4394408,27.6021217 14.5407566,28.9806456 C13.9533512,24.8193627 15.3991201,21.6984005 16.0715707,18.3816365 C14.9264268,16.4532854 16.2080387,12.5748273 18.6249054,13.528125 C21.5975329,14.7068914 16.049815,20.6976357 19.7740049,21.4472204 C23.662352,22.226472 25.2505222,14.6989803 22.8395888,12.2544243 C19.3547122,8.7201028 12.6994285,12.1733347 13.518236,17.232537 C13.7160156,18.4686595 14.9956497,18.8444408 14.0285074,20.5512788 C11.7995312,20.0568298 11.133014,18.2985691 11.220037,15.9548808 C11.3565049,12.1179564 14.6673355,9.43013158 17.9860773,9.06028372 C22.1849383,8.59352385 26.1247081,10.6009868 26.6705798,14.5526234 C27.2817187,19.0105757 24.7738734,23.8344202 20.2862541,23.4863281 Z" id="Shape" fill="#CD1D20" fill-rule="nonzero"></path>
                    </g>
                </g>
            </g>
        </g>
    </g>
</svg>