<?xml version="1.0" encoding="UTF-8"?>
<svg width="39px" height="39px" viewBox="0 0 39 39" version="1.1" xmlns="http://www.w3.org/2000/svg" xmlns:xlink="http://www.w3.org/1999/xlink">
    <title>D1F5E96B-2533-4E61-99F3-8C143E399927</title>
    <g id="Page-1" stroke="none" stroke-width="1" fill="none" fill-rule="evenodd">
        <g id="Visual-design" transform="translate(-1236.000000, -4473.000000)">
            <g id="Group-12" transform="translate(-40.000000, 3864.000000)">
                <g id="Group-8" transform="translate(1196.410526, 609.410526)">
                    <g id="twitter-with-circle" transform="translate(80.000000, 0.000000)">
                        <circle id="Oval-3-Copy" fill="#FFFFFF" cx="19.0894737" cy="19.0894737" r="18.5"></circle>
                        <path d="M18.9868421,0 C8.50056743,0 0,8.50056743 0,18.9868421 C0,29.4731168 8.50056743,37.9736842 18.9868421,37.9736842 C29.4731168,37.9736842 37.9736842,29.4731168 37.9736842,18.9868421 C37.9736842,8.50056743 29.4731168,0 18.9868421,0 Z M26.7101357,15.5533882 C26.7180469,15.7155674 26.7200247,15.8777467 26.7200247,16.0359704 C26.7200247,20.9804605 22.9602344,26.678491 16.0814597,26.678491 C13.9691735,26.678491 12.0032442,26.0614186 10.3498067,24.9973643 C10.6405428,25.0329646 10.93919,25.0468092 11.2417928,25.0468092 C12.9941201,25.0468092 14.6060238,24.4514926 15.8856579,23.4467722 C14.2500206,23.4151275 12.8695189,22.3352508 12.3928701,20.8519038 C12.6203166,20.8934375 12.8536965,20.9171711 13.0949877,20.9171711 C13.4351686,20.9171711 13.7674383,20.8716817 14.0799301,20.7866365 C12.3691365,20.4425 11.0796135,18.9314638 11.0796135,17.1198026 L11.0796135,17.0743133 C11.5839515,17.3531826 12.1614679,17.523273 12.7745847,17.543051 C11.7698643,16.8706003 11.1112582,15.7274342 11.1112582,14.4280222 C11.1112582,13.7437048 11.2951933,13.0989433 11.617574,12.5471382 C13.4628577,14.8097368 16.2159498,16.2970395 19.3250452,16.457241 C19.259778,16.1823273 19.2281332,15.8975247 19.2281332,15.6028331 C19.2281332,13.5399918 20.9013487,11.8628207 22.9681456,11.8628207 C24.0420888,11.8628207 25.0151645,12.3177138 25.6975041,13.0455428 C26.5499342,12.8754523 27.3489638,12.5669161 28.0708594,12.1377344 C27.7919901,13.0099424 27.2006291,13.7437048 26.4273109,14.2084868 C27.1848067,14.1155304 27.9047245,13.915773 28.5751974,13.6171258 C28.074815,14.3667105 27.4399424,15.0272944 26.7101357,15.5533882 Z" id="Shape" fill="#63D0FB" fill-rule="nonzero"></path>
                    </g>
                </g>
            </g>
        </g>
    </g>
</svg>