<?xml version="1.0" encoding="UTF-8"?>
<svg width="21px" height="16px" viewBox="0 0 21 16" version="1.1" xmlns="http://www.w3.org/2000/svg" xmlns:xlink="http://www.w3.org/1999/xlink">
    <title>3F4D91C0-7ADD-47D4-B94B-94BE0D9905B9@1.5x</title>
    <g id="Visual-designs" stroke="none" stroke-width="1" fill="none" fill-rule="evenodd">
        <g id="Landing" transform="translate(-997.000000, -7911.000000)" fill-rule="nonzero">
            <g id="Group-26" transform="translate(0.000000, 7748.000000)">
                <g id="Group-23" transform="translate(996.400593, 62.000000)">
                    <g id="icons8-play_button" transform="translate(1.000000, 101.109769)">
                        <path d="M19.5511222,12.4189526 C19.3516209,13.4663342 18.5037406,14.2643392 17.4563591,14.4139651 C15.8104738,14.6633416 13.0673317,14.9625935 9.97506234,14.9625935 C6.93266833,14.9625935 4.18952618,14.6633416 2.49376559,14.4139651 C1.44638404,14.2643392 0.598503741,13.4663342 0.399002494,12.4189526 C0.199501247,11.2718204 0,9.57605985 0,7.48129676 C0,5.38653367 0.199501247,3.69077307 0.399002494,2.5436409 C0.598503741,1.49625935 1.44638404,0.698254364 2.49376559,0.548628429 C4.13965087,0.29925187 6.88279302,0 9.97506234,0 C13.0673317,0 15.7605985,0.29925187 17.4563591,0.548628429 C18.5037406,0.698254364 19.3516209,1.49625935 19.5511222,2.5436409 C19.7506234,3.69077307 20,5.38653367 20,7.48129676 C19.9501247,9.57605985 19.7506234,11.2718204 19.5511222,12.4189526 Z" id="Path" fill="#FF3D00"></path>
                        <polygon id="Path" fill="#FFFFFF" points="7.98004988 10.9725686 7.98004988 3.99002494 13.9650873 7.48129676"></polygon>
                    </g>
                </g>
            </g>
        </g>
    </g>
</svg>